{
	"asset":{
		"version":"2.0",
		"generator":"Maxon Cinema 4D 2023.2.1 (#200000219)"
	},
	"scenes":[{
		"nodes":[0,
		1,
		2,
		3]
	}],
	"nodes":[{
		"name":"Yellow",
		"translation":[0.05663624778389931,
		-0.2801925241947174,
		0.08329493552446366],
		"rotation":[0.0,
		0.0,
		0.0,
		-1.0],
		"scale":[1.0,
		1.0,
		1.0],
		"children":[4]
	},
	{
		"name":"Blue",
		"translation":[0.05663624778389931,
		-0.2801925241947174,
		0.08329493552446366],
		"rotation":[0.0,
		0.0,
		0.0,
		-1.0],
		"scale":[1.0,
		1.0,
		1.0],
		"children":[5]
	},
	{
		"name":"Green",
		"translation":[0.05663624778389931,
		-0.2801925241947174,
		0.08329493552446366],
		"rotation":[0.0,
		0.0,
		0.0,
		-1.0],
		"scale":[1.0,
		1.0,
		1.0],
		"children":[6]
	},
	{
		"name":"Red",
		"translation":[0.05663624778389931,
		-0.2801925241947174,
		0.08329493552446366],
		"rotation":[0.0,
		0.0,
		0.0,
		-1.0],
		"scale":[1.0,
		1.0,
		1.0],
		"children":[7]
	},
	{
		"name":"yelllow",
		"mesh":0,
		"translation":[0.41923636198043826,
		0.0,
		0.0],
		"rotation":[0.0,
		0.0,
		0.0,
		-1.0],
		"scale":[1.0,
		1.0,
		1.0]
	},
	{
		"name":"blue",
		"mesh":1,
		"translation":[0.41923636198043826,
		0.0,
		0.0],
		"rotation":[0.0,
		0.0,
		0.0,
		-1.0],
		"scale":[1.0,
		1.0,
		1.0]
	},
	{
		"name":"green",
		"mesh":2,
		"translation":[0.41923636198043826,
		0.0,
		0.0],
		"rotation":[0.0,
		0.0,
		0.0,
		-1.0],
		"scale":[1.0,
		1.0,
		1.0]
	},
	{
		"name":"red",
		"mesh":3,
		"translation":[0.41923636198043826,
		0.0,
		0.0],
		"rotation":[0.0,
		0.0,
		0.0,
		-1.0],
		"scale":[1.0,
		1.0,
		1.0]
	}],
	"meshes":[{
		"name":"yelllow",
		"primitives":[{
			"attributes":{
				"POSITION":1,
				"NORMAL":2,
				"TEXCOORD_0":3
			},
			"indices":0,
			"material":0
		}]
	},
	{
		"name":"blue",
		"primitives":[{
			"attributes":{
				"POSITION":5,
				"NORMAL":6,
				"TEXCOORD_0":7
			},
			"indices":4,
			"material":1
		}]
	},
	{
		"name":"green",
		"primitives":[{
			"attributes":{
				"POSITION":9,
				"NORMAL":10,
				"TEXCOORD_0":11
			},
			"indices":8,
			"material":2
		}]
	},
	{
		"name":"red",
		"primitives":[{
			"attributes":{
				"POSITION":13,
				"NORMAL":14,
				"TEXCOORD_0":15
			},
			"indices":12,
			"material":3
		}]
	}],
	"accessors":[{
		"bufferView":0,
		"min":[0],
		"type":"SCALAR",
		"componentType":5123,
		"count":38712,
		"byteOffset":0,
		"max":[6909]
	},
	{
		"bufferView":1,
		"min":[-0.695993959903717,
		-0.05756649747490883,
		-0.1304769366979599],
		"type":"VEC3",
		"componentType":5126,
		"count":6910,
		"byteOffset":0,
		"max":[-0.14326167106628419,
		0.5558814406394959,
		0.13935165107250215]
	},
	{
		"bufferView":1,
		"min":[-0.9999566674232483,
		-0.9914038777351379,
		-0.9999827146530151],
		"type":"VEC3",
		"componentType":5126,
		"count":6910,
		"byteOffset":12,
		"max":[0.9999927282333374,
		0.9999346137046814,
		0.9999622702598572]
	},
	{
		"bufferView":1,
		"min":[0.0021922006271779539,
		0.0021922006271779539],
		"type":"VEC2",
		"componentType":5126,
		"count":6910,
		"byteOffset":24,
		"max":[0.9978078007698059,
		0.9855928421020508]
	},
	{
		"bufferView":2,
		"min":[0],
		"type":"SCALAR",
		"componentType":5123,
		"count":38712,
		"byteOffset":0,
		"max":[6909]
	},
	{
		"bufferView":3,
		"min":[-0.695993959903717,
		-0.05756649747490883,
		-0.1304769366979599],
		"type":"VEC3",
		"componentType":5126,
		"count":6910,
		"byteOffset":0,
		"max":[-0.14326167106628419,
		0.5558814406394959,
		0.13935165107250215]
	},
	{
		"bufferView":3,
		"min":[-0.9999566674232483,
		-0.9914038777351379,
		-0.9999827146530151],
		"type":"VEC3",
		"componentType":5126,
		"count":6910,
		"byteOffset":12,
		"max":[0.9999927282333374,
		0.9999346137046814,
		0.9999622702598572]
	},
	{
		"bufferView":3,
		"min":[0.0021922006271779539,
		0.0021922006271779539],
		"type":"VEC2",
		"componentType":5126,
		"count":6910,
		"byteOffset":24,
		"max":[0.9978078007698059,
		0.9855928421020508]
	},
	{
		"bufferView":4,
		"min":[0],
		"type":"SCALAR",
		"componentType":5123,
		"count":38712,
		"byteOffset":0,
		"max":[6909]
	},
	{
		"bufferView":5,
		"min":[-0.695993959903717,
		-0.05756649747490883,
		-0.1304769366979599],
		"type":"VEC3",
		"componentType":5126,
		"count":6910,
		"byteOffset":0,
		"max":[-0.14326167106628419,
		0.5558814406394959,
		0.13935165107250215]
	},
	{
		"bufferView":5,
		"min":[-0.9999566674232483,
		-0.9914038777351379,
		-0.9999827146530151],
		"type":"VEC3",
		"componentType":5126,
		"count":6910,
		"byteOffset":12,
		"max":[0.9999927282333374,
		0.9999346137046814,
		0.9999622702598572]
	},
	{
		"bufferView":5,
		"min":[0.0021922006271779539,
		0.0021922006271779539],
		"type":"VEC2",
		"componentType":5126,
		"count":6910,
		"byteOffset":24,
		"max":[0.9978078007698059,
		0.9855928421020508]
	},
	{
		"bufferView":6,
		"min":[0],
		"type":"SCALAR",
		"componentType":5123,
		"count":38712,
		"byteOffset":0,
		"max":[6909]
	},
	{
		"bufferView":7,
		"min":[-0.695993959903717,
		-0.05756649747490883,
		-0.1304769366979599],
		"type":"VEC3",
		"componentType":5126,
		"count":6910,
		"byteOffset":0,
		"max":[-0.14326167106628419,
		0.5558814406394959,
		0.13935165107250215]
	},
	{
		"bufferView":7,
		"min":[-0.9999566674232483,
		-0.9914038777351379,
		-0.9999827146530151],
		"type":"VEC3",
		"componentType":5126,
		"count":6910,
		"byteOffset":12,
		"max":[0.9999927282333374,
		0.9999346137046814,
		0.9999622702598572]
	},
	{
		"bufferView":7,
		"min":[0.0021922006271779539,
		0.0021922006271779539],
		"type":"VEC2",
		"componentType":5126,
		"count":6910,
		"byteOffset":24,
		"max":[0.9978078007698059,
		0.9855928421020508]
	}],
	"bufferViews":[{
		"byteLength":77424,
		"buffer":0,
		"byteOffset":0,
		"target":34963
	},
	{
		"byteLength":221120,
		"buffer":0,
		"byteOffset":77424,
		"target":34962,
		"byteStride":32
	},
	{
		"byteLength":77424,
		"buffer":1,
		"byteOffset":0,
		"target":34963
	},
	{
		"byteLength":221120,
		"buffer":1,
		"byteOffset":77424,
		"target":34962,
		"byteStride":32
	},
	{
		"byteLength":77424,
		"buffer":2,
		"byteOffset":0,
		"target":34963
	},
	{
		"byteLength":221120,
		"buffer":2,
		"byteOffset":77424,
		"target":34962,
		"byteStride":32
	},
	{
		"byteLength":77424,
		"buffer":3,
		"byteOffset":0,
		"target":34963
	},
	{
		"byteLength":221120,
		"buffer":3,
		"byteOffset":77424,
		"target":34962,
		"byteStride":32
	}],
	"buffers":[{
		"uri":"data:application/octet-stream;base64,",
		"byteLength":298544
	},
	{
		"uri":"data:application/octet-stream;base64,",
		"byteLength":298544
	},
	{
		"uri":"data:application/octet-stream;base64,",
		"byteLength":298544
	},
	{
		"uri":"data:application/octet-stream;base64,",
		"byteLength":298544
	}],
	"materials":[{
		"pbrMetallicRoughness":{
			"baseColorFactor":[0.8,
			0.6512000000000002,
			0.055999999999999969,
			1.0],
			"metallicFactor":0.0,
			"roughnessFactor":0.5
		},
		"emissiveFactor":[0.0,
		0.0,
		0.0],
		"alphaMode":"OPAQUE",
		"doubleSided":false,
		"name":"yellow"
	},
	{
		"pbrMetallicRoughness":{
			"baseColorFactor":[0.055999999999999969,
			0.20479999999999949,
			0.8,
			1.0],
			"metallicFactor":0.0,
			"roughnessFactor":0.5
		},
		"emissiveFactor":[0.0,
		0.0,
		0.0],
		"alphaMode":"OPAQUE",
		"doubleSided":false,
		"name":"blue"
	},
	{
		"pbrMetallicRoughness":{
			"baseColorFactor":[0.055999999999999969,
			0.20479999999999949,
			0.8,
			1.0],
			"metallicFactor":0.0,
			"roughnessFactor":0.5
		},
		"emissiveFactor":[0.0,
		0.0,
		0.0],
		"alphaMode":"OPAQUE",
		"doubleSided":false,
		"name":"blue"
	},
	{
		"pbrMetallicRoughness":{
			"baseColorFactor":[0.8,
			0.055999999999999969,
			0.055999999999999969,
			1.0],
			"metallicFactor":0.0,
			"roughnessFactor":0.5
		},
		"emissiveFactor":[0.0,
		0.0,
		0.0],
		"alphaMode":"OPAQUE",
		"doubleSided":false,
		"name":"red"
	}]
}