<?xml version="1.0" encoding="UTF-8"?>
<svg id="Layer_2" data-name="Layer 2" xmlns="http://www.w3.org/2000/svg" viewBox="0 0 339.41 339.61">
  <defs>
    <style>
      .cls-1 {
        fill: #fed600;
      }
    </style>
  </defs>
  <g id="Layer_1-2" data-name="Layer 1">
    <path class="cls-1" d="m339.2,159.68C335.38,75.75,262.87-.57,170.5.03,76.26-1.68-1.51,77.53.12,168.09c-3.63,93.44,78.04,173.49,169.67,171.48,50.5-1.1,92.25-19.47,126-56.57,31.78-34.95,45.53-76.58,43.41-123.32Zm-148.75-83.14c2.75-6.96,5.77-13.73,12.5-18,5.69-3.61,13.49-2.36,17.64,2.93,2,2.56,4.92,4.64,6.18,7.49,2.18,4.92,3.71,10.13,5.02,15.45,1.74,7.08,2.33,14.1,1.83,21.17-.81,11.35-2.92,22.59-9.69,32.07-5.19,7.28-9.38,10.34-17.69,8.33-5.71-1.38-9.1-5.91-11.86-10.8-5.58-9.9-7.26-20.72-7.33-31.91.1-9.03,0-18.12,3.4-26.73Zm-80.66-4.31c2.6-6.14,6.18-11.73,13.03-14.59,5.83-2.44,10.3-.52,14.44,3.04,5.65,4.86,8.44,11.37,10.65,18.43,2.85,9.11,4.2,18.31,3.38,27.72-.94,10.86-3.37,21.41-9.58,30.67-2.48,3.7-5.5,7.08-9.88,8.47-6.97,2.21-12.32-.51-16.48-6.05-6.65-8.88-10.26-19.06-10.47-30.3-.04-1.86-.34-3.72-.52-5.57-.34-10.99,1.16-21.73,5.43-31.82Zm173.25,98.08c-.48.37-1.03.7-1.59.91-4.12,1.53-4.48,4.49-4.03,8.47,1.25,10.83-.42,21.45-2.64,32.09-2.4,11.49-7.1,21.97-12.41,32.24-3.77,7.3-8.49,14.01-14.39,19.86-6.83,6.77-13.55,13.6-21.74,18.84-11.38,7.28-23.6,12.57-36.8,15.1-7.14,1.37-14.56,1.54-21.87,1.76-19.02.57-36.59-4.7-52.88-14.23-10.14-5.94-19.2-13.22-26.98-22.2-8.83-10.19-15.51-21.6-20.78-33.87-3.06-7.11-4.79-14.61-6.17-22.31-1.86-10.35-1.54-20.62-1.16-30.96.07-1.83-.55-2.61-2.1-3.33-1.86-.86-3.82-1.8-5.24-3.21-2.58-2.56-2.46-8.67-.11-11.59,2.18-2.71,6.7-3.65,10.52-1.73,7.45,3.74,14.79,7.7,22.24,11.44,3.89,1.95,6.38,6.52,4.05,11.3-1.99,4.07-6.74,5.94-11.28,4.22-.56-.21-1.11-.49-1.6-.84-1.43-1-2.14-.63-2.08,1.08.15,4.48.28,8.96.52,13.44.64,11.87,3.75,23.2,9.13,33.66,3.66,7.12,8.43,13.75,13.34,20.12,3.65,4.74,8,9.09,12.59,12.94,10.3,8.62,21.95,14.73,35.04,18.32,8.34,2.28,16.69,2.95,23.09,2.9,22.98.14,41.27-7.35,57.52-19.73,10.04-7.65,18.01-17.46,24.25-28.53,5.15-9.14,9.02-18.85,10.97-29.11,1.46-7.66,1.87-15.53,2.45-23.33.23-3.12-.14-3.16-2.96-1.77-3.37,1.66-6.64,2.19-9.99-.22-4.59-3.3-4.54-11.44.42-14.1,8.04-4.31,16.2-8.39,24.4-12.39,3.15-1.54,8.7.65,10.41,3.75,1.94,3.52.97,8.59-2.15,11.01Z"/>
  </g>
</svg>